<?xml version="1.0" encoding="utf-8"?>
<!-- Generator: Adobe Illustrator 24.0.2, SVG Export Plug-In . SVG Version: 6.00 Build 0)  -->
<svg version="1.1" id="Calque_1" xmlns="http://www.w3.org/2000/svg" xmlns:xlink="http://www.w3.org/1999/xlink" x="0px" y="0px"
	 viewBox="0 0 626.5 655.5" style="enable-background:new 0 0 626.5 655.5;" xml:space="preserve">
<style type="text/css">
	.st0{opacity:0.7;}
	.st1{opacity:0.5;fill:#FFFFFF;}
	.st2{fill:none;stroke:#FFFFFF;stroke-width:8;}
</style>
<g>
	<path class="st0" d="M616.6,6.9c-0.4,0-0.9,0-1.3,0c0,0-34.8-0.1-39.4-0.1c-1.7,0.1-7.3,3.8-10.3,5.8c-5.2,3.5-7.7,5-9.8,5H377.4
		c-3.2,0-6.1-2.1-9.5-4.6c-4-2.9-8.5-6.2-13.6-6.2C333.7,6.9,7.6,7,7.6,7h0C7.3,7,7.1,7,7,7c0,0.1-0.1,0.4-0.1,0.8l0,0.1v636.9
		c0,2.3,0.5,3.3,0.7,3.5c0,0,0,0,0.1,0h99.2c1.1-0.3,4-2.3,6.2-3.7c6.2-4.1,10.9-7,14.7-7h367.9c5.2,0,9.3,3.4,12.9,6.4
		c2.8,2.3,5.5,4.5,7.8,4.5c5.8,0,65.1,0,90.4,0l10.8,0c1.5,0,2-0.4,2-1.7l0-8.5c0-187.5-0.1-624.2,0-629.6c0-1.3-0.2-1.7-0.2-1.7
		C619,6.8,617.4,6.9,616.6,6.9z"/>
	<path class="st1" d="M544.4,655.5c-14.3,0-25.7,0-28.1,0c-4.7,0-8.5-3.1-12.1-6.1c-3-2.5-5.8-4.8-8.5-4.8H127.8
		c-2.1,0-7.6,3.7-10.9,5.9c-4.7,3.1-7.3,4.7-9.5,4.9l-0.2,0H7.6c-1.8,0-7.6-0.8-7.6-10.4V8c0-2.5,0.7-4.4,2.1-5.8
		c0.9-1,2.7-2.1,5.6-2.1l0,0c0,0,326-0.1,346.7-0.1c7.4,0,13.3,4.3,17.6,7.5c1.9,1.4,4.5,3.3,5.4,3.3h178.1c1.1-0.4,4.1-2.4,6.3-3.9
		C568.2,2.8,572.6,0,576,0c4.5,0,39.4,0.1,39.4,0.1c0.3,0,0.6,0,1,0c2.2-0.1,5.5-0.2,7.9,2.1c1.6,1.6,2.4,3.9,2.3,6.8
		c-0.2,5.5,0,483.2,0,629.5l0,8.5c0,4.3-2.7,8.6-8.9,8.6l-10.8,0C591.8,655.5,565,655.5,544.4,655.5z M127.8,637.7h367.9
		c5.2,0,9.3,3.4,12.9,6.4c2.8,2.3,5.5,4.5,7.8,4.5c5.8,0,65.1,0,90.4,0l10.8,0c1.5,0,2-0.4,2-1.7l0-8.5c0-187.5-0.1-624.2,0-629.6
		c0-1.3-0.2-1.7-0.2-1.7c-0.4-0.2-2-0.2-2.7-0.2c-0.4,0-0.9,0-1.3,0c0,0-34.8-0.1-39.4-0.1c-1.7,0.1-7.3,3.8-10.3,5.8
		c-5.2,3.5-7.7,5-9.8,5H377.4c-3.2,0-6.1-2.1-9.5-4.6c-4-2.9-8.5-6.2-13.6-6.2C333.7,6.9,7.6,7,7.6,7h0C7.3,7,7.1,7,7,7
		c0,0.1-0.1,0.4-0.1,0.8l0,0.1v636.9c0,2.3,0.5,3.3,0.7,3.5c0,0,0,0,0.1,0h99.2c1.1-0.3,4-2.3,6.2-3.7
		C119.3,640.6,124,637.7,127.8,637.7z"/>
</g>
<g>
	<path class="st0" d="M-279.8-45c-0.5,0-1,0-1.5,0c0,0-40.4-0.1-45.7-0.1c-1.9,0.1-8.5,4.4-12,6.7c-6.1,4-8.9,5.8-11.4,5.8h-207.3
		c-3.7,0-7.1-2.5-11.1-5.4c-4.6-3.4-9.8-7.2-15.8-7.2c-24,0-402.7,0.1-402.7,0.1h0c-0.4,0-0.7,0.1-0.8,0.1c-0.1,0.1-0.1,0.4-0.1,1
		l0,0.1v739.9c0,2.7,0.6,3.9,0.8,4.1c0,0,0,0,0.1,0h115.3c1.2-0.4,4.7-2.7,7.2-4.3c7.2-4.8,12.6-8.1,17.1-8.1h427.3
		c6,0,10.8,3.9,15,7.4c3.3,2.7,6.4,5.2,9,5.2c6.8,0.1,75.7,0,105.1,0l12.6,0c1.8,0,2.3-0.4,2.3-2l0-9.8
		c-0.1-217.8-0.2-725.1,0-731.4c0-1.5-0.3-2-0.3-2C-277-45.1-278.9-45-279.8-45z"/>
	<path class="st1" d="M-363.6,708.5c-16.6,0-29.9,0-32.6,0c-5.5,0-9.8-3.6-14-7c-3.5-2.9-6.8-5.6-9.9-5.6h-427.3
		c-2.4,0-8.8,4.3-12.7,6.8c-5.5,3.6-8.5,5.5-11.1,5.7l-0.2,0h-115.6c-2.1,0-8.9-0.9-8.9-12.1V-43.7c0-2.9,0.8-5.1,2.4-6.8
		c1.1-1.1,3.1-2.4,6.5-2.4l0,0c0,0,378.7-0.1,402.7-0.1c8.5,0,15.5,5,20.5,8.7c2.2,1.6,5.2,3.8,6.3,3.8h206.9
		c1.3-0.5,4.8-2.8,7.3-4.5c7.4-4.9,12.5-8.1,16.4-8.1c5.3,0,45.7,0.1,45.7,0.1c0.4,0,0.7,0,1.2,0c2.5-0.1,6.4-0.3,9.1,2.5
		c1.8,1.8,2.7,4.5,2.6,7.9c-0.2,6.4,0,561.3,0,731.2l0,9.8c0,5-3.2,10-10.3,10l-12.5,0C-308.5,708.5-339.7,708.5-363.6,708.5z
		 M-847.6,687.8h427.3c6,0,10.8,3.9,15,7.4c3.3,2.7,6.4,5.2,9,5.2c6.8,0.1,75.7,0,105.1,0l12.6,0c1.8,0,2.3-0.4,2.3-2l0-9.8
		c-0.1-217.8-0.2-725.1,0-731.4c0-1.5-0.3-2-0.3-2c-0.4-0.3-2.3-0.2-3.2-0.2c-0.5,0-1,0-1.5,0c0,0-40.4-0.1-45.7-0.1
		c-1.9,0.1-8.5,4.4-12,6.7c-6.1,4-8.9,5.8-11.4,5.8h-207.3c-3.7,0-7.1-2.5-11.1-5.4c-4.6-3.4-9.8-7.2-15.8-7.2
		c-24,0-402.7,0.1-402.7,0.1h0c-0.4,0-0.7,0.1-0.8,0.1c-0.1,0.1-0.1,0.4-0.1,1l0,0.1v739.9c0,2.7,0.6,3.9,0.8,4.1c0,0,0,0,0.1,0
		h115.3c1.2-0.4,4.7-2.7,7.2-4.3C-857.5,691.2-852,687.8-847.6,687.8z"/>
</g>
<path class="st2" d="M-1971-60.4c-5.1,0-4.9,4.3-4.9,5.2c0,3.7,0,732.4,0,739.9c0,4.7,1.4,8.1,4.9,8.1c4.9,0,115.6,0,115.6,0
	c3.9-0.2,17.7-12.5,24-12.5c6.3,0,418.4,0,427.3,0c8.9,0,15.6,12.5,24,12.6c8.3,0.1,110.3,0,117.7,0c5.1,0,6.3-3.4,6.3-6
	c0-4-0.2-733.7,0-741.2c0.2-7.5-5.5-6.2-8.9-6.2c0,0-40.4-0.1-45.7-0.1c-5.3,0-20.1,12.6-23.4,12.6c-3.3,0-201.4,0-207.3,0
	s-14.6-12.6-26.8-12.6C-1592.3-60.4-1971-60.4-1971-60.4z"/>
</svg>
