<?xml version="1.0" encoding="utf-8"?>
<!-- Generator: Adobe Illustrator 24.0.2, SVG Export Plug-In . SVG Version: 6.00 Build 0)  -->
<svg version="1.1" id="Calque_1" xmlns="http://www.w3.org/2000/svg" xmlns:xlink="http://www.w3.org/1999/xlink" x="0px" y="0px"
	 viewBox="0 0 283.5 283.5" style="enable-background:new 0 0 283.5 283.5;" xml:space="preserve">
<style type="text/css">
	.st0{fill:#3078B4;}
	.st1{fill:#9FDBAD;}
	.st2{opacity:0.3;}
</style>
<path class="st0" d="M175.9,65.7c19.2,37.5,58.8,24.5,89.3,6.5C240.9,29.1,194.7,0,141.7,0C88.9,0,42.9,28.9,18.5,71.7
	C58,43.3,142.3,0.2,175.9,65.7z"/>
<path class="st1" d="M193.2,142.5c22.9,23.6,55.2,16,90.1,6.3c0.1-2.3,0.2-4.7,0.2-7c0-25.3-6.6-49-18.3-69.6
	c-30.4,18.1-70,31-89.3-6.5C142.3,0.2,58,43.3,18.5,71.7c-9.7,17-16,36.3-17.9,56.8c8.2-2.6,18.5-6.6,31.4-12.3
	C155.1,62,159.8,108.1,193.2,142.5z"/>
<path class="st0" d="M116.3,145.8c37.7,35.3,48.3,86.6,163.7,12.9c0.9-0.6,1.8-1.1,2.7-1.7c0.3-2.7,0.5-5.4,0.6-8.2
	c-34.9,9.7-67.2,17.4-90.1-6.3C159.8,108.1,155.1,62,32,116.2c-12.9,5.7-23.2,9.7-31.4,12.3c-0.4,4.4-0.6,8.8-0.6,13.2
	c0,5.7,0.3,11.4,1,16.9C43.9,141.4,84.1,115.7,116.3,145.8z"/>
<path class="st0" d="M143.3,230.5c-27.4-46-72.8-14.9-101,12.2c25.6,25.2,60.7,40.8,99.5,40.8c28.9,0,55.8-8.7,78.3-23.6
	C191.8,268.5,163.4,264.1,143.3,230.5z"/>
<path class="st1" d="M282.6,157c-0.9,0.6-1.8,1.1-2.7,1.7c-115.4,73.7-126,22.4-163.7-12.9C84.1,115.7,43.9,141.4,1,158.6
	c3.9,32.7,18.9,62.1,41.3,84c28.2-27.1,73.6-58.2,101-12.2c20.1,33.7,48.6,38,76.7,29.4C254.2,237.2,278,199.9,282.6,157z"/>
<path class="st2" d="M22.2,141.7c0-53.5,25.7-101.1,65.3-131C36.2,32,0,82.7,0,141.7c0,59.1,36.2,109.7,87.5,131
	C47.9,242.8,22.2,195.3,22.2,141.7z"/>
</svg>
