<?xml version="1.0" encoding="utf-8"?>
<!-- Generator: Adobe Illustrator 24.0.2, SVG Export Plug-In . SVG Version: 6.00 Build 0)  -->
<svg version="1.1" xmlns="http://www.w3.org/2000/svg" xmlns:xlink="http://www.w3.org/1999/xlink" x="0px" y="0px"
	 viewBox="0 0 283.5 283.5" style="enable-background:new 0 0 283.5 283.5;" xml:space="preserve">
<style type="text/css">
	.st0{fill:#380045;}
	.st1{fill:#F0DAA4;}
	.st2{fill:#B49C73;}
	.st3{fill:#A2553A;}
	.st4{opacity:0.3;}
</style>
<g id="Calque_1">
	<path class="st0" d="M487.7,483.4c-78.2,0-141.7-63.6-141.7-141.7c0-78.2,63.6-141.7,141.7-141.7c78.2,0,141.7,63.6,141.7,141.7
		C629.4,419.9,565.8,483.4,487.7,483.4z M487.7,203.9c-76,0-137.8,61.8-137.8,137.8s61.8,137.8,137.8,137.8s137.8-61.8,137.8-137.8
		S563.7,203.9,487.7,203.9z"/>
	<path class="st1" d="M202.7,105.6c-31-12.6-11.9,27.2-69.1,30c-57.3,2.8-61.3,10.8-74.9-8.7c-8.6-12.3-35.3-8.3-58,0.7
		C0.2,132.2,0,137,0,141.7c0,12.4,1.6,24.4,4.6,35.8c18.2-9.3,38.4-25,63.7-16.8c31.8,10.4,4.4-13.8,61.3-20.8
		c56.9-6.9,92.7,2.3,107.7,20.8c12.1,15,31-10.5,45.7-30.6c-0.8-9.7-2.5-19.1-5.2-28.2c-0.8,0.3-1.7,0.5-2.7,0.6
		C252.9,106.1,233.7,118.2,202.7,105.6z"/>
	<path class="st1" d="M135.7,25.3c7.8,24.7,23.8,28.6,48.1,22.8c12.1-2.9,21.9-16,32.3-27.1C194.5,7.7,169,0,141.7,0
		c-22.8,0-44.4,5.4-63.5,15C106.4,9,131.2,10.8,135.7,25.3z"/>
	<path class="st1" d="M224.8,181.2c-9.5-24.1-61.5-23-85.3-15.4c-23.8,7.5-40.1,27.3-69.7,18c-22.8-7.2-45.6,6.2-57.4,16
		c1.8,4,3.8,7.9,5.9,11.7c20.7-12,36.5-16.7,42.1-1.8c9.1,24.3,61.1,24.1,85,17c24-7.1,40.6-26.6,70-16.7c22.7,7.6,45.7-5.4,57.7-15
		c3.3-8.1,5.8-16.5,7.5-25.2C253.6,187.9,231.9,199.2,224.8,181.2z M179.9,200c-22.7,0-41.2-6-41.2-13.3s18.4-13.3,41.2-13.3
		c22.7,0,41.2,6,41.2,13.3S202.6,200,179.9,200z"/>
	<path class="st1" d="M216.6,232.9c-31.6-11-4.7,13.7-61.7,19.6c-57,5.9-92.7-4-107.3-22.7c-4.9-6.3-11.2-5.6-17.9-1.3
		c25.9,33.4,66.5,55,112.1,55c44.2,0,83.6-20.2,109.6-51.9C240.7,235.5,229.2,237.2,216.6,232.9z"/>
	<path class="st1" d="M261.1,79c-14.9,3.8-30.5,6.7-51.6-1.9c-13.3-5.4-17.3-1.2-22.2,5.6C214.4,93,251.6,85.5,261.1,79z"/>
	<path class="st1" d="M77,72.7c7.8,24.7,23.8,28.6,48.1,22.8c14.4-3.4,25.6-21.4,38.3-33.1c-24.4,2.4-29.2,2.8-39.2-11.5
		c-8.6-12.3-47.4-4-79.1,8.2C61.5,58.9,73.9,62.9,77,72.7z"/>
	<path class="st1" d="M118.3,124.1c8.5-2,15.9-9.2,23.2-17.1c-0.4,0-0.8,0.1-1.1,0.1c-47.3,2.3-58.3,8.2-68.3-0.9
		C80.3,126.5,95.7,129.5,118.3,124.1z"/>
	<path class="st1" d="M268,77.2C268,77.2,268,77.2,268,77.2c-0.1-0.1-0.1-0.1-0.1,0C267.9,77.2,267.9,77.2,268,77.2z"/>
	<path class="st1" d="M211.3,58.3c15.4,2,31.6,0.3,43.1-2.6c-3.9-5.1-8.1-9.9-12.7-14.4C236.5,48,228.6,55.3,211.3,58.3z"/>
	<path class="st1" d="M211.3,58.3c-3.6,0.6-7.7,1.1-12.2,1.3c-15.3,0.8-26.8,1.9-35.7,2.8c-12.7,11.7-23.9,29.7-38.3,33.1
		c-24.3,5.8-40.3,1.9-48.1-22.8c-3.1-9.8-15.5-13.8-31.9-13.5c-9.8,3.8-19,7.9-26.3,12c-3.8,6.5-7,13.4-9.7,20.5
		c29.6-6.9,56.4-5.6,61.1,9.6c0.6,1.7,1.1,3.4,1.8,4.9c10.1,9.1,21,3.2,68.3,0.9c0.4,0,0.8,0,1.1-0.1c13.4-14.7,26.4-32,45.1-24.6
		c0.2,0.1,0.5,0.2,0.7,0.3c4.8-6.8,8.9-11,22.2-5.6c21.1,8.6,36.8,5.7,51.6,1.9c0.6-0.4,1.1-0.8,1.5-1.2c1.1-1.3,3.1-1.3,5.3-0.5
		c0,0,0.1,0,0.1,0c-3.9-7.6-8.4-14.8-13.6-21.5C242.9,58.6,226.7,60.4,211.3,58.3z"/>
	<path class="st2" d="M183.8,48.1c-24.3,5.8-40.3,1.9-48.1-22.8C131.2,10.8,106.4,9,78.3,15C56.9,25.7,38.5,41.7,25,61.3
		c7.1-1.3,13.9-2,20.1-2.1C76.8,47,115.6,38.7,124.2,51c10,14.3,14.8,13.8,39.2,11.5c8.8-8.1,18.2-13.2,30-8.6
		c5.6,2.2,11.7,3.7,17.9,4.5c17.3-3.1,25.2-10.3,30.4-17.1c-7.7-7.7-16.3-14.5-25.6-20.2C205.7,32.1,195.9,45.3,183.8,48.1z"/>
	<path class="st2" d="M211.3,58.3c-6.2-0.8-12.3-2.2-17.9-4.5c-11.8-4.7-21.3,0.5-30,8.6c8.9-0.9,20.4-2,35.7-2.8
		C203.6,59.4,207.7,59,211.3,58.3z"/>
	<path class="st2" d="M45.1,59.2c-6.2,0.1-13,0.8-20.1,2.1c-2.2,3.2-4.3,6.5-6.2,9.9C26.2,67.1,35.3,63,45.1,59.2z"/>
	<path class="st2" d="M261.1,79c-9.5,6.5-46.7,14-73.8,3.7c-6.4,9-14,22.4-45.8,24.3c-7.2,7.9-14.6,15-23.2,17.1
		c-22.6,5.4-38,2.4-46.3-17.9c-2.1-1.9-4.2-4.5-6.6-7.8c-8.7-12.5-36.1-8.2-59.1,1.1c-2.8,9-4.7,18.4-5.7,28.1
		c22.7-9,49.4-13,58-0.7c13.6,19.5,17.6,11.5,74.9,8.7c57.3-2.8,38.1-42.6,69.1-30c31,12.6,50.2,0.5,72.4-3c1-0.2,1.9-0.4,2.7-0.6
		c-2.5-8.6-5.8-16.9-9.8-24.8c0,0-0.1,0-0.1,0C265.6,77.8,263.4,78.4,261.1,79z"/>
	<path class="st2" d="M262.6,77.7c-0.4,0.4-0.9,0.8-1.5,1.2c2.3-0.6,4.5-1.2,6.7-1.8C265.6,76.4,263.7,76.5,262.6,77.7z"/>
	<path class="st2" d="M187.3,82.6c-0.2-0.1-0.5-0.2-0.7-0.3c-18.7-7.4-31.7,9.9-45.1,24.6C173.3,105.1,180.9,91.6,187.3,82.6z"/>
	<path class="st2" d="M65.5,98.3c2.4,3.4,4.4,5.9,6.6,7.8c-0.6-1.5-1.2-3.2-1.8-4.9c-4.8-15.2-31.5-16.4-61.1-9.6
		c-1,2.6-1.9,5.2-2.7,7.8C29.3,90.2,56.7,85.9,65.5,98.3z"/>
	<path class="st2" d="M237.3,160.8c-15-18.5-50.8-27.7-107.7-20.8c-56.9,6.9-29.5,31.1-61.3,20.8c-25.2-8.2-45.4,7.4-63.7,16.8
		c2,7.7,4.6,15.1,7.8,22.2c11.8-9.8,34.6-23.2,57.4-16c29.6,9.3,45.8-10.5,69.7-18c23.8-7.5,75.8-8.7,85.3,15.4
		c7.1,18,28.8,6.7,55.9-11.5c1.8-9,2.8-18.4,2.8-28c0-3.9-0.2-7.7-0.5-11.5C268.3,150.3,249.4,175.7,237.3,160.8z"/>
	<path class="st2" d="M215.4,209.9c-29.4-9.8-46,9.6-70,16.7c-24,7.1-75.9,7.3-85-17c-5.6-14.9-21.4-10.2-42.1,1.8
		c3.4,6,7.2,11.7,11.4,17.1c6.7-4.4,13-5.1,17.9,1.3c14.7,18.8,50.3,28.6,107.3,22.7c57-5.9,30.1-30.6,61.7-19.6
		c12.6,4.4,24.1,2.7,34.7-1.3c9-11,16.4-23.3,21.8-36.7C261.1,204.5,238.1,217.5,215.4,209.9z"/>
	<ellipse class="st3" cx="179.9" cy="186.7" rx="41.2" ry="13.3"/>
	<path class="st4" d="M22.2,141.7c0-53.5,25.7-101.1,65.3-131C36.2,32,0,82.7,0,141.7c0,59.1,36.2,109.7,87.5,131
		C47.9,242.8,22.2,195.3,22.2,141.7z"/>
	<path class="st4" d="M-92.8,119.8c0-53.5,25.7-101.1,65.3-131c-51.4,21.3-87.5,71.9-87.5,131c0,59.1,36.2,109.7,87.5,131
		C-67.2,220.9-92.8,173.3-92.8,119.8z"/>
</g>
<g id="Calque_2">
</g>
</svg>
