<?xml version="1.0" encoding="utf-8"?>
<!-- Generator: Adobe Illustrator 24.0.2, SVG Export Plug-In . SVG Version: 6.00 Build 0)  -->
<svg version="1.1" id="Calque_1" xmlns="http://www.w3.org/2000/svg" xmlns:xlink="http://www.w3.org/1999/xlink" x="0px" y="0px"
	 viewBox="0 0 283.5 283.5" style="enable-background:new 0 0 283.5 283.5;" xml:space="preserve">
<style type="text/css">
	.st0{fill:#96999B;}
	.st1{fill:#434852;}
	.st2{opacity:0.3;}
</style>
<path class="st0" d="M230.7,31.4c-8,3.9-13.6,12.2-13.6,21.7c0,13.3,10.8,24.1,24.1,24.1c8.6,0,16.1-4.5,20.4-11.2
	C253.2,52.9,242.8,41.1,230.7,31.4z"/>
<path class="st0" d="M108.1,279.4c4.5-2.9,7.8-6.9,9.6-11.6c6.3-15.9-5.8-35.7-27-44.1c-6.5-2.6-13-3.8-19.2-3.8
	c-14.1,0-26.3,6.3-30.7,17.4c-0.4,1-0.7,2-1,3C58.2,259.2,81.7,273,108.1,279.4z"/>
<path class="st0" d="M237.8,237.4c2.7,0,5.2,0.3,7.6,0.9c23.6-25.3,38-59.3,38-96.6c0-25.9-6.9-50.1-19.1-71
	c-5.3,7-13.7,11.5-23.2,11.5C225,82.2,212,69.1,212,53.1c0-10.6,5.7-20,14.3-25.1c-13.2-9.9-28.2-17.5-44.5-22.2
	c18.9,18.4,26.9,42.9,18.5,64.1c-6,15-19.2,26.1-37.2,31.1c-6.9,1.9-14.2,2.9-21.6,2.9c-11.7,0-23.8-2.3-35.4-7
	C87,89.3,71.2,76.5,61.8,60.7C56,51.1,53,41,52.8,31.3c-29.4,23.8-49.1,59-52.3,98.9c0.8-0.1,1.5-0.1,2.3-0.1c13.2,0,24,8.4,24,18.7
	s-10.8,18.7-24,18.7c-0.1,0-0.3,0-0.4,0c4.9,26.5,17.1,50.4,34.5,69.6c0.1-0.4,0.3-0.8,0.4-1.2C44.4,218,69,211,92.1,220.2
	s36.2,31.2,29.1,49.1c-1.8,4.4-4.6,8.2-8.3,11.3c9.3,1.9,18.9,2.9,28.8,2.9c26.1,0,50.6-7.1,71.7-19.4c-0.9-2-1.3-4.2-1.3-6.4
	C212.1,246.5,223.6,237.4,237.8,237.4z M141.7,207.9c-14.2,0-25.7-9.1-25.7-20.2s11.5-20.2,25.7-20.2s25.7,9.1,25.7,20.2
	S155.9,207.9,141.7,207.9z M232.8,143.8c14.2,0,25.7,9.1,25.7,20.2s-11.5,20.2-25.7,20.2s-25.7-9.1-25.7-20.2
	S218.6,143.8,232.8,143.8z"/>
<path class="st0" d="M59.6,26.2c-1,10.1,1.7,20.9,7.9,31.2c8.7,14.5,23.3,26.4,41.1,33.5s36.6,8.4,52.9,3.9
	c16-4.5,27.7-14.2,32.9-27.3c8.7-21.9-2.9-48.1-26.6-65.1c-8.4-1.6-17.1-2.4-26-2.4C111.1,0,82.7,9.7,59.6,26.2z"/>
<path class="st0" d="M1.7,163.8c0.3,0,0.7,0,1,0c11.2,0,20.3-6.7,20.3-15s-9.1-15-20.3-15c-0.9,0-1.7,0.1-2.5,0.1
	c-0.1,2.6-0.2,5.2-0.2,7.8C0,149.2,0.6,156.6,1.7,163.8z"/>
<path class="st0" d="M232.8,179.2c11.4,0,20.7-6.8,20.7-15.2s-9.3-15.2-20.7-15.2s-20.7,6.8-20.7,15.2S221.4,179.2,232.8,179.2z"/>
<path class="st0" d="M141.7,172.5c-11.4,0-20.7,6.8-20.7,15.2s9.3,15.2,20.7,15.2s20.7-6.8,20.7-15.2S153.2,172.5,141.7,172.5z"/>
<path class="st0" d="M217.1,257.6c0,1.3,0.2,2.5,0.7,3.8c8.5-5.4,16.4-11.7,23.5-18.7c-1.1-0.1-2.3-0.2-3.4-0.2
	C226.4,242.4,217.1,249.3,217.1,257.6z"/>
<path class="st1" d="M232.8,184.2c14.2,0,25.7-9.1,25.7-20.2s-11.5-20.2-25.7-20.2s-25.7,9.1-25.7,20.2S218.6,184.2,232.8,184.2z
	 M232.8,148.8c11.4,0,20.7,6.8,20.7,15.2s-9.3,15.2-20.7,15.2s-20.7-6.8-20.7-15.2S221.4,148.8,232.8,148.8z"/>
<path class="st1" d="M141.7,167.5c-14.2,0-25.7,9.1-25.7,20.2s11.5,20.2,25.7,20.2s25.7-9.1,25.7-20.2S155.9,167.5,141.7,167.5z
	 M141.7,202.9c-11.4,0-20.7-6.8-20.7-15.2s9.3-15.2,20.7-15.2s20.7,6.8,20.7,15.2S153.2,202.9,141.7,202.9z"/>
<path class="st1" d="M217.1,257.6c0-8.4,9.3-15.2,20.7-15.2c1.2,0,2.3,0.1,3.4,0.2c1.4-1.4,2.8-2.8,4.2-4.3c-2.4-0.6-5-0.9-7.6-0.9
	c-14.2,0-25.7,9.1-25.7,20.2c0,2.2,0.5,4.4,1.3,6.4c1.5-0.9,2.9-1.7,4.3-2.6C217.3,260.2,217.1,258.9,217.1,257.6z"/>
<path class="st1" d="M212.1,53.1c0,16.1,13.1,29.1,29.1,29.1c9.5,0,17.9-4.5,23.2-11.5c-0.9-1.6-1.9-3.1-2.8-4.7
	c-4.3,6.7-11.8,11.2-20.4,11.2c-13.3,0-24.1-10.8-24.1-24.1c0-9.5,5.6-17.8,13.6-21.7c-1.4-1.1-2.8-2.3-4.3-3.3
	C217.8,33.1,212.1,42.4,212.1,53.1z"/>
<path class="st1" d="M121.2,269.2c7.1-17.9-6-39.9-29.1-49.1C69,211,44.4,218,37.3,235.9c-0.2,0.4-0.3,0.8-0.4,1.2
	c1,1.1,2,2.1,3,3.2c0.3-1,0.6-2,1-3c4.4-11.1,16.6-17.4,30.7-17.4c6.2,0,12.8,1.2,19.2,3.8c21.2,8.4,33.3,28.2,27,44.1
	c-1.9,4.7-5.2,8.7-9.6,11.6c1.6,0.4,3.2,0.8,4.9,1.1C116.7,277.5,119.5,273.6,121.2,269.2z"/>
<path class="st1" d="M106.2,96.9c11.7,4.6,23.8,7,35.4,7c7.5,0,14.7-1,21.6-2.9c18-5,31.2-16.1,37.2-31.1
	c8.4-21.2,0.3-45.7-18.5-64.1c-4.6-1.4-9.4-2.5-14.2-3.4c23.7,17,35.3,43.2,26.6,65.1c-5.2,13.1-16.9,22.8-32.9,27.3
	c-16.3,4.6-35.1,3.2-52.9-3.9s-32.4-19-41.1-33.5c-6.2-10.3-8.9-21-7.9-31.2c-2.3,1.6-4.5,3.3-6.7,5.1c0.2,9.7,3.2,19.8,9,29.4
	C71.3,76.5,87.1,89.3,106.2,96.9z"/>
<path class="st1" d="M26.7,148.8c0-10.3-10.8-18.7-24-18.7c-0.8,0-1.5,0-2.3,0.1c-0.1,1.2-0.2,2.5-0.3,3.7c0.8-0.1,1.7-0.1,2.5-0.1
	c11.2,0,20.3,6.7,20.3,15s-9.1,15-20.3,15c-0.4,0-0.7,0-1,0c0.2,1.2,0.4,2.5,0.6,3.7c0.1,0,0.3,0,0.4,0
	C16,167.5,26.7,159.1,26.7,148.8z"/>
<path class="st2" d="M22.2,141.7c0-53.5,25.7-101.1,65.3-131C36.2,32,0,82.7,0,141.7c0,59.1,36.2,109.7,87.5,131
	C47.9,242.8,22.2,195.3,22.2,141.7z"/>
</svg>
