<?xml version="1.0" encoding="utf-8"?>
<!-- Generator: Adobe Illustrator 24.0.2, SVG Export Plug-In . SVG Version: 6.00 Build 0)  -->
<svg version="1.1" id="Calque_1" xmlns="http://www.w3.org/2000/svg" xmlns:xlink="http://www.w3.org/1999/xlink" x="0px" y="0px"
	 viewBox="0 0 283.5 283.5" style="enable-background:new 0 0 283.5 283.5;" xml:space="preserve">
<style type="text/css">
	.st0{fill:#9369A8;}
	.st1{fill:#380045;}
	.st2{fill:none;}
	.st3{fill:#9FDBAD;}
</style>
<g>
	<path class="st0" d="M128.6,494.2c-8.8,0-15.9-7.2-15.9-16.1c0-8.9,7.1-16.1,15.9-16.1h121.9c0-0.5,0-1.1,0-1.6
		c0-19.6-4-38.3-11.2-55.3h-117c-8.8,0-15.9-7.2-15.9-16.1c0-8.9,7.1-16.1,15.9-16.1h97.9c-26-33-66.2-54.1-111.4-54.1
		c-33.6,0-64.5,11.7-88.8,31.3h39.9c8.8,0,15.9,7.2,15.9,16.1c0,8.9-7.1,16.1-15.9,16.1H-9.5c-6.6,10-12,20.9-16,32.5H92.8
		c8.8,0,15.9,7.2,15.9,16.1c0,8.9-7.1,16.1-15.9,16.1H-32.4c-0.4,4.4-0.6,8.9-0.6,13.4c0,10,1,19.8,3,29.2h75.2
		c8.8,0,15.9,7.2,15.9,16.1c0,8.9-7.1,16.1-15.9,16.1H-19C3.9,569.3,52.5,602,108.7,602c32.6,0,62.5-11,86.5-29.4h-92.3
		c-8.8,0-15.9-7.2-15.9-16.1c0-8.9,7.1-16.1,15.9-16.1h122.9c9.5-13.8,16.5-29.4,20.6-46.1H128.6z"/>
	<path class="st1" d="M108.7,430.7c0-8.9-7.1-16.1-15.9-16.1H-25.5c-3.5,10.3-5.8,21.1-6.9,32.3H92.8
		C101.6,446.9,108.7,439.7,108.7,430.7z"/>
	<path class="st1" d="M75.7,366c0-8.9-7.1-16.1-15.9-16.1H19.9C8.5,359-1.4,369.9-9.5,382.1h69.3C68.6,382.1,75.7,374.9,75.7,366z"
		/>
	<path class="st1" d="M61.1,505.7c0-8.9-7.1-16.1-15.9-16.1H-30c2.4,11.3,6.1,22.1,11,32.3h64.2C54,521.8,61.1,514.6,61.1,505.7z"/>
	<path class="st1" d="M87,556.5c0,8.9,7.1,16.1,15.9,16.1h92.3c11.8-9.1,22.1-20,30.5-32.3H102.9C94.1,540.3,87,547.5,87,556.5z"/>
	<path class="st1" d="M112.7,478c0,8.9,7.1,16.1,15.9,16.1h117.8c2.5-10.4,3.9-21.2,4.1-32.3H128.6
		C119.8,461.9,112.7,469.1,112.7,478z"/>
	<path class="st1" d="M106.3,388.8c0,8.9,7.1,16.1,15.9,16.1h117c-4.9-11.6-11.4-22.5-19.1-32.3h-97.9
		C113.4,372.7,106.3,379.9,106.3,388.8z"/>
</g>
<path class="st2" d="M70.2,143.6c0-2.3,0.1-4.6,0.3-6.9c0.5-5.2,1.5-10.3,3.1-15.2c-22,7.1-35.6,15.7-34.8,23.5
	c0.8,7.2,13.5,12.3,33.2,14.8c-0.1-0.4-0.2-0.8-0.3-1.2C70.7,153.8,70.2,148.8,70.2,143.6z"/>
<path class="st2" d="M215.7,142.3c14.9-6.1,23.5-12.9,22.8-19.2c-0.8-7-12.9-12.1-31.8-14.6c1.2,2.2,2.3,4.4,3.2,6.7
	C213.5,123.6,215.6,132.7,215.7,142.3z"/>
<path class="st0" d="M145.1,165.7c-9.1,1-18,1.8-26.7,2.4c-0.5,4-4,7.1-8.1,7.1h-33c11.8,24.4,36.7,41.2,65.6,41.2
	c16.7,0,32.1-5.6,44.4-15.1H140c-4.5,0-8.2-3.7-8.2-8.3c0-4.6,3.7-8.3,8.2-8.3H203c4.9-7.1,8.5-15.1,10.6-23.7h-34.4
	C168.3,162.8,156.9,164.4,145.1,165.7z"/>
<path class="st1" d="M126,95.2c0-4.6-3.7-8.3-8.2-8.3H97.4c-5.9,4.7-11,10.3-15.1,16.6h35.6C122.4,103.5,126,99.7,126,95.2z"/>
<path class="st1" d="M110.3,158.6H71.7c0.1,0.4,0.2,0.8,0.3,1.2c12.4,1.5,27.5,2,44.2,1.3C114.7,159.6,112.6,158.6,110.3,158.6z"/>
<path class="st1" d="M118.4,168c-15.5,1-30.2,1.5-43.6,1.3c0.8,2,1.6,4,2.5,5.9h33C114.5,175.2,117.9,172.1,118.4,168z"/>
<path class="st1" d="M131.8,193c0,4.6,3.7,8.3,8.2,8.3h47.4c6.1-4.7,11.3-10.3,15.7-16.6H140C135.4,184.7,131.8,188.4,131.8,193z"/>
<path class="st1" d="M145,152.7c0,2.2,0.9,4.3,2.3,5.8c24.7-3.1,46.7-8.1,63-14h-57.1C148.6,144.4,145,148.1,145,152.7z"/>
<path class="st1" d="M213.6,161c0.6-2.3,1-4.7,1.4-7.1c-11,2.6-23,5-35.8,7.1H213.6z"/>
<path class="st0" d="M210,115.2h-60.1c-4,0-7.3-2.9-8-6.8c-0.1-0.5-0.1-1-0.1-1.5c0-1.3,0.3-2.6,0.9-3.7c1.3-2.7,4.1-4.6,7.3-4.6
	h50.3c-13.3-16.9-34-27.8-57.2-27.8c-17.3,0-33.1,6-45.6,16.1h20.5c4.5,0,8.2,3.7,8.2,8.3c0,4.6-3.7,8.3-8.2,8.3H82.3
	c-2.1,3.2-4,6.6-5.6,10.1c-1,2.1-1.8,4.3-2.6,6.6h4.1h56.7c4.5,0,8.2,3.7,8.2,8.3c0,4.6-3.7,8.3-8.2,8.3H70.5
	c-0.2,2.3-0.3,4.6-0.3,6.9c0,5.1,0.5,10.2,1.6,15h38.6c2.3,0,4.4,1,5.8,2.5c8.1-0.4,16.6-1,25.3-2c2-0.2,3.9-0.4,5.9-0.7
	c-1.4-1.5-2.3-3.5-2.3-5.8c0-4.6,3.7-8.3,8.2-8.3h57.1c1.9-0.7,3.7-1.4,5.5-2.1C215.6,132.7,213.5,123.6,210,115.2z"/>
<path class="st1" d="M134.8,120.1H78.1H74c-0.2,0.5-0.3,0.9-0.5,1.4c-1.5,4.9-2.6,9.9-3.1,15.2h64.3c4.5,0,8.2-3.7,8.2-8.3
	C143,123.8,139.3,120.1,134.8,120.1z"/>
<path class="st3" d="M283.4,119.1c-1.3-12.2-34.8-19.2-82.2-19.2c2,2.7,3.9,5.6,5.5,8.6c18.9,2.5,31,7.6,31.8,14.6
	c0.7,6.3-8,13.1-22.8,19.2c-1.7,0.7-3.6,1.4-5.5,2.1c-16.2,5.9-38.3,11-63,14c-1.9,0.2-3.9,0.5-5.9,0.7c-8.7,1-17.2,1.6-25.3,2
	c-16.7,0.7-31.8,0.3-44.2-1.3c-19.7-2.5-32.4-7.6-33.2-14.8c-0.9-7.9,12.8-16.4,34.8-23.5c0.1-0.5,0.3-0.9,0.5-1.4
	c0.8-2.2,1.6-4.4,2.6-6.6C30,123.8-1.3,137.9,0,150.2c1.3,11.6,31.3,18.5,74.8,19.1c13.4,0.2,28.1-0.2,43.6-1.3
	c8.7-0.6,17.6-1.4,26.7-2.4c11.8-1.3,23.2-2.9,34.1-4.7c12.7-2.1,24.8-4.5,35.8-7.1C257.1,143.9,284.7,130.6,283.4,119.1z"/>
<path class="st1" d="M206.7,108.5c-1.6-3-3.5-5.9-5.5-8.6c-0.3-0.5-0.7-0.9-1-1.3h-50.3c-3.2,0-6,1.9-7.3,4.6
	c-0.6,1.1-0.9,2.4-0.9,3.7c0,0.5,0.1,1,0.1,1.5c0.7,3.9,4,6.8,8,6.8H210C209,112.9,207.9,110.7,206.7,108.5z"/>
</svg>
