<?xml version="1.0" encoding="UTF-8" standalone="no"?><!-- Generator: Gravit.io --><svg xmlns="http://www.w3.org/2000/svg" xmlns:xlink="http://www.w3.org/1999/xlink" style="isolation:isolate" viewBox="0 0 1000 1000" width="1000pt" height="1000pt"><path d=" M 54.418 512.599 C 51.247 260.867 253.046 53.918 504.778 50.747 C 756.509 47.575 963.458 249.374 966.63 501.106 C 969.801 752.838 768.002 959.787 516.27 962.958 C 264.539 966.13 57.59 764.331 54.418 512.599 Z " fill="rgb(255,147,25)"/><path d=" M 242.424 504.545 C 265.152 450 196.97 440.909 239.394 327.273 C 281.818 213.636 265.152 80.303 384.848 168.182 C 504.545 256.061 746.97 383.333 610.606 428.788 C 474.242 474.242 587.879 357.576 448.485 363.636 C 309.091 369.697 330.303 387.879 306.061 519.697 C 281.818 651.515 219.697 559.091 242.424 504.545 Z " fill="rgb(174,16,16)"/><path d=" M 421.212 505.152 C 345.455 617.273 262.121 691.515 210.606 632.424 C 159.091 573.333 128.788 671.818 165.152 741.515 C 201.515 811.212 272.727 946.061 336.364 893.03 C 400 840 506.061 729.394 493.939 644.545 C 481.818 559.697 496.97 393.03 421.212 505.152 Z " fill="rgb(174,16,16)"/><path d=" M 311.098 351.705 C 338.867 310.608 369.412 283.395 388.294 305.055 C 407.176 326.714 418.283 290.615 404.955 265.069 C 391.626 239.522 365.524 190.095 342.199 209.532 C 318.874 228.97 279.998 269.511 284.441 300.612 C 288.884 331.712 283.33 392.802 311.098 351.705 Z " fill="rgb(142,15,15)"/><path d=" M 558.303 960.51 C 613.735 884.659 618.706 879.728 704.545 842.939 C 748.92 823.922 802.462 819.311 848.441 813.13 C 775.097 893.993 673.109 948.535 558.303 960.51 Z " fill-rule="evenodd" fill="rgb(174,16,16)"/><path d=" M 462.853 53.183 C 481.084 130.333 473.83 149.717 580.303 142.424 C 690.909 134.848 710.606 95.455 766.667 177.273 C 798.625 223.915 858.651 257.263 890.326 254.303 C 807.441 129.951 665.203 48.725 504.778 50.747 C 490.636 50.925 476.652 51.746 462.853 53.183 Z " fill-rule="evenodd" fill="rgb(174,16,16)"/><path d=" M 55.429 537.572 C 145.327 554.364 167.577 609.932 163.636 496.97 C 159.091 366.667 112.121 336.364 172.727 242.424 C 202.635 196.067 234.757 160.779 242.509 137.834 C 126.932 221.941 52.482 358.926 54.418 512.599 C 54.524 520.983 54.855 529.311 55.429 537.572 Z " fill-rule="evenodd" fill="rgb(174,16,16)"/><path d=" M 966.332 523.908 C 936.794 476.963 860.009 421.689 804.545 321.212 C 700 131.818 663.636 262.121 716.667 410.606 C 769.697 559.091 666.667 593.939 650 622.727 C 633.333 651.515 596.97 604.545 568.182 521.212 C 539.394 437.879 506.061 534.848 565.152 737.879 C 624.242 940.909 683.333 769.697 886.364 654.545 C 918.693 636.209 941.303 620.063 956.017 605.114 C 961.826 578.817 965.337 551.674 966.332 523.908 Z " fill-rule="evenodd" fill="rgb(174,16,16)"/><path d=" M 806.309 459.179 C 809.965 490.453 853.936 454.501 864.517 516.839 C 875.099 579.176 927.548 614.314 827.481 653.334 C 727.413 692.354 540.873 788.37 608.575 695.146 C 676.277 601.923 644.918 706.006 726.975 624.247 C 809.032 542.489 790.469 548.53 763.15 490.5 C 735.83 432.471 802.654 427.905 806.309 459.179 Z " fill="rgb(142,15,15)"/><path d=" M 297.981 828.415 C 296.472 805.568 263.221 830.068 257.819 784.408 C 252.416 738.747 215.612 711.307 289.715 686.634 C 363.819 661.96 502.811 599.059 450.228 664.284 C 397.645 729.508 424.232 655.066 361.643 711.438 C 299.055 767.811 312.758 764.103 330.473 807.248 C 348.189 850.393 299.491 851.261 297.981 828.415 Z " fill="rgb(142,15,15)"/><path d=" M 372.727 116.667 C 418.182 146.97 439.394 187.879 537.879 248.485 C 636.364 309.091 610.606 266.667 642.424 233.333 C 674.242 200 627.273 157.576 586.364 181.818 C 545.455 206.061 507.576 200 496.97 174.242 C 486.364 148.485 327.273 86.364 372.727 116.667 Z " fill="rgb(255,180,94)"/><path d=" M 535.629 709.261 C 522.42 751.272 515.93 808.087 487.372 892.091 C 458.813 976.096 466.605 917.186 458.023 870.771 C 449.44 824.356 463.224 765.499 474.486 799.299 C 485.748 833.099 496.522 824.768 499.831 788.989 C 503.141 753.21 548.838 667.249 535.629 709.261 Z " fill="rgb(255,180,94)"/></svg>